<?xml version="1.0" ?><svg data-name="Layer 1" id="Layer_1" viewBox="0 0 512 512" xmlns="http://www.w3.org/2000/svg"><path d="M383.4,205.38a91,91,0,0,0-34.18,6.68l-15.94-29.93V143.44c10.49-1,26.44-.9,34.74,5.44,3.44,2.64,5.21,6.17,5.54,11.11.68,10.11-6,12.57-9.88,13.12a9.78,9.78,0,0,0,2.19,19.44c11.76-1.32,28.72-11.44,27.21-33.87-.7-10.53-5.26-19.29-13.17-25.34-19.84-15.15-54.45-8.77-58.34-8a9.79,9.79,0,0,0-7.86,9.59v39.87l-101.1.11,10.52-10.52a9.78,9.78,0,0,0-6.92-16.7h-55.7A9.78,9.78,0,0,0,154.24,165l26,21.73-15,26.36a91.6,91.6,0,1,0,54.48,93.61l39-.05c.2,0,.37.16.57.16h.08a9.58,9.58,0,0,0,2.27-.63,9.92,9.92,0,0,0,1.74-.48,9.55,9.55,0,0,0,1.88-1.27,9.43,9.43,0,0,0,1.63-1.65c.26-.35.68-.53.9-.91l55.38-97,8.74,16.41a91.58,91.58,0,1,0,51.46-15.86Zm-190.53-1.27,49.2,83-22.38,0a91.56,91.56,0,0,0-37.5-64.28Zm7.06,83-54.48.06,27-47.28A72,72,0,0,1,199.93,287.15ZM128.6,369.08a72.07,72.07,0,1,1,26.87-138.89l-35.36,62a9.78,9.78,0,0,0,8.49,14.63h0l71.33-.09A72.12,72.12,0,0,1,128.6,369.08Zm130.56-91.52-49.24-83.07,96.72-.11ZM383.4,369.08a72,72,0,0,1-42.16-130.39l33.52,62.92A9.78,9.78,0,0,0,392,292.42l-33.53-63a72,72,0,1,1,24.9,139.61Z"/></svg>